<svg width="20" height="20" viewBox="0 0 20 20" fill="none" xmlns="http://www.w3.org/2000/svg">
<path d="M19.999 14.19C19.999 17.83 17.829 20 14.189 20H12.999C12.449 20 11.999 19.55 11.999 19V13.23C11.999 12.96 12.219 12.73 12.489 12.73L14.249 12.7C14.389 12.69 14.509 12.59 14.539 12.45L14.889 10.54C14.919 10.36 14.779 10.19 14.589 10.19L12.459 10.22C12.179 10.22 11.959 10 11.949 9.73001L11.909 7.28C11.909 7.12 12.039 6.98001 12.209 6.98001L14.609 6.94C14.779 6.94 14.909 6.81002 14.909 6.64002L14.869 4.23999C14.869 4.06999 14.739 3.94 14.569 3.94L11.869 3.98001C10.209 4.01001 8.88904 5.37 8.91904 7.03L8.96903 9.78C8.97903 10.06 8.75904 10.28 8.47904 10.29L7.27902 10.31C7.10902 10.31 6.97904 10.44 6.97904 10.61L7.00903 12.51C7.00903 12.68 7.13902 12.81 7.30902 12.81L8.50903 12.79C8.78903 12.79 9.00901 13.01 9.01901 13.28L9.10901 18.98C9.11901 19.54 8.66901 20 8.10901 20H5.80902C2.16902 20 -0.000976562 17.83 -0.000976562 14.18V5.81C-0.000976562 2.17 2.16902 0 5.80902 0H14.189C17.829 0 19.999 2.17 19.999 5.81V14.19Z" fill="white"/>
</svg>
