<svg width="24" height="24" viewBox="0 0 24 24" fill="none" xmlns="http://www.w3.org/2000/svg">
<path d="M7.1026 0.333008H16.9026C20.6359 0.333008 23.6693 3.36634 23.6693 7.09967V16.8997C23.6693 18.6943 22.9564 20.4154 21.6874 21.6844C20.4184 22.9534 18.6972 23.6663 16.9026 23.6663H7.1026C3.36927 23.6663 0.335938 20.633 0.335938 16.8997V7.09967C0.335938 5.30504 1.04885 3.58391 2.31785 2.31492C3.58684 1.04592 5.30797 0.333008 7.1026 0.333008ZM6.86927 2.66634C5.75536 2.66634 4.68708 3.10884 3.89942 3.89649C3.11177 4.68415 2.66927 5.75243 2.66927 6.86634V17.133C2.66927 19.4547 4.5476 21.333 6.86927 21.333H17.1359C18.2498 21.333 19.3181 20.8905 20.1058 20.1029C20.8934 19.3152 21.3359 18.2469 21.3359 17.133V6.86634C21.3359 4.54467 19.4576 2.66634 17.1359 2.66634H6.86927ZM18.1276 4.41634C18.5144 4.41634 18.8853 4.56999 19.1588 4.84348C19.4323 5.11697 19.5859 5.4879 19.5859 5.87467C19.5859 6.26145 19.4323 6.63238 19.1588 6.90587C18.8853 7.17936 18.5144 7.33301 18.1276 7.33301C17.7408 7.33301 17.3699 7.17936 17.0964 6.90587C16.8229 6.63238 16.6693 6.26145 16.6693 5.87467C16.6693 5.4879 16.8229 5.11697 17.0964 4.84348C17.3699 4.56999 17.7408 4.41634 18.1276 4.41634ZM12.0026 6.16634C13.5497 6.16634 15.0334 6.78092 16.1274 7.87488C17.2214 8.96885 17.8359 10.4526 17.8359 11.9997C17.8359 13.5468 17.2214 15.0305 16.1274 16.1245C15.0334 17.2184 13.5497 17.833 12.0026 17.833C10.4555 17.833 8.97178 17.2184 7.87781 16.1245C6.78385 15.0305 6.16927 13.5468 6.16927 11.9997C6.16927 10.4526 6.78385 8.96885 7.87781 7.87488C8.97178 6.78092 10.4555 6.16634 12.0026 6.16634ZM12.0026 8.49967C11.0743 8.49967 10.1841 8.86842 9.52773 9.5248C8.87135 10.1812 8.5026 11.0714 8.5026 11.9997C8.5026 12.9279 8.87135 13.8182 9.52773 14.4745C10.1841 15.1309 11.0743 15.4997 12.0026 15.4997C12.9309 15.4997 13.8211 15.1309 14.4775 14.4745C15.1339 13.8182 15.5026 12.9279 15.5026 11.9997C15.5026 11.0714 15.1339 10.1812 14.4775 9.5248C13.8211 8.86842 12.9309 8.49967 12.0026 8.49967Z" fill="white"/>
</svg>
