<svg width="20" height="20" viewBox="0 0 20 20" fill="none" xmlns="http://www.w3.org/2000/svg">
<path d="M14.1915 0H5.81146C2.17146 0 0.00146484 2.17 0.00146484 5.81V14.18C0.00146484 17.83 2.17146 20 5.81146 20H14.1815C17.8215 20 19.9915 17.83 19.9915 14.19V5.81C20.0015 2.17 17.8315 0 14.1915 0ZM10.0015 13.88C7.86146 13.88 6.12146 12.14 6.12146 10C6.12146 7.86 7.86146 6.12 10.0015 6.12C12.1415 6.12 13.8815 7.86 13.8815 10C13.8815 12.14 12.1415 13.88 10.0015 13.88ZM15.9215 4.88C15.8715 5 15.8015 5.11 15.7115 5.21C15.6115 5.3 15.5015 5.37 15.3815 5.42C15.2615 5.47 15.1315 5.5 15.0015 5.5C14.7315 5.5 14.4815 5.4 14.2915 5.21C14.2015 5.11 14.1315 5 14.0815 4.88C14.0315 4.76 14.0015 4.63 14.0015 4.5C14.0015 4.37 14.0315 4.24 14.0815 4.12C14.1315 3.99 14.2015 3.89 14.2915 3.79C14.5215 3.56 14.8715 3.45 15.1915 3.52C15.2615 3.53 15.3215 3.55 15.3815 3.58C15.4415 3.6 15.5015 3.63 15.5615 3.67C15.6115 3.7 15.6615 3.75 15.7115 3.79C15.8015 3.89 15.8715 3.99 15.9215 4.12C15.9715 4.24 16.0015 4.37 16.0015 4.5C16.0015 4.63 15.9715 4.76 15.9215 4.88Z" fill="white"/>
</svg>
